<svg xmlns="http://www.w3.org/2000/svg" viewBox="0 0 1400 900"><rect width="1400" height="900" fill="#050514"/><g stroke="#ffffff" stroke-opacity=".08"><path d="M0 150h1400M0 300h1400M0 450h1400M0 600h1400M0 750h1400"/><path d="M200 0v900M400 0v900M600 0v900M800 0v900M1000 0v900M1200 0v900"/></g><circle cx="700" cy="430" r="270" fill="none" stroke="#5ee7ff" stroke-width="7"/><rect x="430" y="160" width="540" height="540" fill="none" stroke="#ff4fd8" stroke-width="6" opacity=".8"/><text x="585" y="520" fill="white" font-family="Georgia" font-size="280">π</text><g fill="#ffd166" font-family="monospace" font-size="24"><text x="100" y="100">MONTE CARLO</text><text x="1050" y="100">POLYGON SQUEEZE</text><text x="100" y="820">DIGIT VAULT</text><text x="1060" y="820">SERIES RACE</text></g><g fill="#78ffba"><circle cx="520" cy="300" r="7"/><circle cx="910" cy="280" r="7"/><circle cx="790" cy="610" r="7"/><circle cx="430" cy="570" r="7"/><circle cx="1010" cy="510" r="7"/></g></svg>