<svg xmlns="http://www.w3.org/2000/svg" viewBox="0 0 1200 675" role="img" aria-labelledby="t d"><title id="t">The Monument of Three</title><desc id="d">A luminous number three suspended inside a triangular cosmic museum chamber with three orbiting lights.</desc><defs><linearGradient id="bg" x2="1" y2="1"><stop stop-color="#120821"/><stop offset=".45" stop-color="#071625"/><stop offset="1" stop-color="#160b12"/></linearGradient><linearGradient id="tri" x2="1"><stop stop-color="#9d78ff"/><stop offset=".5" stop-color="#d8ff72"/><stop offset="1" stop-color="#ff7d66"/></linearGradient><radialGradient id="halo"><stop stop-color="#d8ff72" stop-opacity=".35"/><stop offset="1" stop-color="#d8ff72" stop-opacity="0"/></radialGradient><filter id="glow"><feGaussianBlur stdDeviation="9" result="b"/><feMerge><feMergeNode in="b"/><feMergeNode in="SourceGraphic"/></feMerge></filter><pattern id="grid" width="48" height="48" patternUnits="userSpaceOnUse"><path d="M48 0H0V48" fill="none" stroke="#fff" stroke-opacity=".035"/></pattern></defs><rect width="1200" height="675" fill="url(#bg)"/><rect width="1200" height="675" fill="url(#grid)"/><circle cx="600" cy="335" r="300" fill="url(#halo)"/><g fill="none" opacity=".65"><circle cx="600" cy="335" r="235" stroke="#9d78ff" stroke-width="2"/><circle cx="600" cy="335" r="190" stroke="#d8ff72" stroke-opacity=".55"/><circle cx="600" cy="335" r="145" stroke="#ff7d66" stroke-dasharray="5 13"/></g><path d="M600 74 931 552 269 552Z" fill="none" stroke="url(#tri)" stroke-width="4" filter="url(#glow)"/><path d="M600 120 867 507 333 507Z" fill="#fff" fill-opacity=".018" stroke="#fff" stroke-opacity=".16"/><g filter="url(#glow)"><circle cx="600" cy="74" r="12" fill="#d8ff72"/><circle cx="931" cy="552" r="12" fill="#ff7d66"/><circle cx="269" cy="552" r="12" fill="#9d78ff"/></g><g opacity=".72" stroke="#fff" stroke-opacity=".16"><path d="M600 74v478M269 552 766 231M931 552 434 231"/><path d="M420 335h360"/></g><text x="600" y="438" text-anchor="middle" font-family="Georgia,serif" font-size="340" fill="url(#tri)" filter="url(#glow)">3</text><g font-family="Inter,Arial,sans-serif" fill="#f7f4ef" font-size="18" letter-spacing="4"><text x="600" y="36" text-anchor="middle">TRIAD · PRIME · TRIANGLE</text><text x="90" y="620">1 + 2 = 3</text><text x="985" y="620">120° × 3</text></g><g fill="#fff"><circle cx="123" cy="132" r="2"/><circle cx="1060" cy="128" r="2"/><circle cx="1110" cy="390" r="2"/><circle cx="86" cy="430" r="2"/><circle cx="1020" cy="94" r="1.5"/><circle cx="180" cy="210" r="1.5"/></g></svg>