<svg xmlns="http://www.w3.org/2000/svg" viewBox="0 0 1200 675" role="img" aria-labelledby="t d"><title id="t">Triplet Universe</title><desc id="d">Three luminous sectors connect geometry, genetics, color, and spatial axes around the number three.</desc><defs><radialGradient id="bg"><stop stop-color="#15102c"/><stop offset=".55" stop-color="#07121b"/><stop offset="1" stop-color="#05070b"/></radialGradient><linearGradient id="g" x2="1"><stop stop-color="#a982ff"/><stop offset=".5" stop-color="#dfff72"/><stop offset="1" stop-color="#ff8068"/></linearGradient><filter id="gl"><feGaussianBlur stdDeviation="6" result="b"/><feMerge><feMergeNode in="b"/><feMergeNode in="SourceGraphic"/></feMerge></filter></defs><rect width="1200" height="675" fill="url(#bg)"/><circle cx="600" cy="337" r="270" fill="none" stroke="#fff" stroke-opacity=".08"/><path d="M600 337 600 67A270 270 0 0 1 834 472Z" fill="#dfff72" fill-opacity=".055"/><path d="M600 337 834 472A270 270 0 0 1 366 472Z" fill="#ff8068" fill-opacity=".055"/><path d="M600 337 366 472A270 270 0 0 1 600 67Z" fill="#a982ff" fill-opacity=".055"/><g stroke="url(#g)" stroke-width="3" filter="url(#gl)"><path d="M600 337V90"/><path d="M600 337 814 460"/><path d="M600 337 386 460"/></g><circle cx="600" cy="337" r="88" fill="#09121b" stroke="url(#g)" stroke-width="3"/><text x="600" y="399" text-anchor="middle" font-family="Georgia,serif" font-size="190" fill="url(#g)" filter="url(#gl)">3</text><g font-family="Inter,Arial" text-anchor="middle"><g transform="translate(600 145)"><circle r="46" fill="#dfff72" fill-opacity=".12" stroke="#dfff72"/><text y="-4" fill="#fff" font-size="18">CODON</text><text y="22" fill="#cdd3d8" font-size="13">3 nucleotides</text></g><g transform="translate(790 455)"><circle r="46" fill="#ff8068" fill-opacity=".12" stroke="#ff8068"/><text y="-4" fill="#fff" font-size="18">SPACE</text><text y="22" fill="#cdd3d8" font-size="13">x · y · z</text></g><g transform="translate(410 455)"><circle r="46" fill="#a982ff" fill-opacity=".12" stroke="#a982ff"/><text y="-4" fill="#fff" font-size="18">RGB</text><text y="22" fill="#cdd3d8" font-size="13">3 channels</text></g></g><g transform="translate(930 205)" stroke="#70e9ff" fill="none"><path d="M0 95 78 0l78 95Z"/><path d="M78 0v95M0 95h156"/></g><g transform="translate(118 205)" fill="none" stroke="#fff" stroke-opacity=".45"><path d="M0 70c70-100 135 100 205 0s135 100 205 0"/><circle cx="0" cy="70" r="4" fill="#fff"/><circle cx="205" cy="70" r="4" fill="#fff"/><circle cx="410" cy="70" r="4" fill="#fff"/></g><text x="600" y="45" text-anchor="middle" fill="#fff" font-family="Inter,Arial" font-size="18" letter-spacing="5">TRIPLETS ACROSS WORLDS</text><text x="600" y="625" text-anchor="middle" fill="#c3c9d0" font-family="Inter,Arial" font-size="16">geometry · information · biology · coordinates · color</text></svg>